<?xml version="1.0" encoding="UTF-8" standalone="no"?>
<!-- Created with Inkscape (http://www.inkscape.org/) -->

<svg
   xmlns:dc="http://purl.org/dc/elements/1.1/"
   xmlns:cc="http://creativecommons.org/ns#"
   xmlns:rdf="http://www.w3.org/1999/02/22-rdf-syntax-ns#"
   xmlns:svg="http://www.w3.org/2000/svg"
   xmlns="http://www.w3.org/2000/svg"
   xmlns:sodipodi="http://sodipodi.sourceforge.net/DTD/sodipodi-0.dtd"
   xmlns:inkscape="http://www.inkscape.org/namespaces/inkscape"
   width="210mm"
   height="297mm"
   viewBox="0 0 744.09448819 1052.3622047"
   id="svg2"
   version="1.1"
   inkscape:version="0.91 r13725"
   sodipodi:docname="magic_colors.svg"
   inkscape:export-filename="/home/jflesch/git/paperwork/data/magic_colors.png"
   inkscape:export-xdpi="15.518839"
   inkscape:export-ydpi="15.518839">
  <defs
     id="defs4" />
  <sodipodi:namedview
     id="base"
     pagecolor="#ffffff"
     bordercolor="#666666"
     borderopacity="1.0"
     inkscape:pageopacity="0.0"
     inkscape:pageshadow="2"
     inkscape:zoom="2.8"
     inkscape:cx="182.2224"
     inkscape:cy="490.05013"
     inkscape:document-units="px"
     inkscape:current-layer="layer1"
     showgrid="true"
     showguides="false"
     inkscape:window-width="1920"
     inkscape:window-height="1136"
     inkscape:window-x="1366"
     inkscape:window-y="27"
     inkscape:window-maximized="1">
    <inkscape:grid
       type="xygrid"
       id="grid3342" />
  </sodipodi:namedview>
  <metadata
     id="metadata7">
    <rdf:RDF>
      <cc:Work
         rdf:about="">
        <dc:format>image/svg+xml</dc:format>
        <dc:type
           rdf:resource="http://purl.org/dc/dcmitype/StillImage" />
        <dc:title />
      </cc:Work>
    </rdf:RDF>
  </metadata>
  <g
     inkscape:label="Calque 1"
     inkscape:groupmode="layer"
     id="layer1">
    <g
       id="g4234"
       transform="matrix(0.75022088,0,0,0.62975032,27.41855,294.15461)">
      <g
         id="g4238"
         transform="matrix(0.6005334,0.58129661,-0.37470122,0.65646013,316.33286,-63.459299)">
        <rect
           style="fill:#000000"
           id="rect3336"
           width="30.299583"
           height="351.9411"
           x="109.84296"
           y="442.4903"
           transform="matrix(0.99999995,3.2071303e-4,-9.0336654e-5,1,0,0)" />
        <rect
           style="fill:#ffffff"
           id="rect3340"
           width="19.917061"
           height="56.531815"
           x="114.93161"
           y="447.57452"
           transform="matrix(0.99999995,3.0272704e-4,-9.5703842e-5,1,0,0)" />
      </g>
    </g>
    <g
       id="g4242"
       transform="matrix(1.4303932,0,0,1.382958,-141.33231,-177.97262)">
      <circle
         r="25"
         cy="542.36218"
         cx="250"
         id="path3367"
         style="opacity:1;fill:#ff0000" />
      <circle
         r="27.5"
         cy="570.31396"
         cx="233.00635"
         id="path3369"
         style="opacity:1;fill:#00ff00" />
      <circle
         r="27.5"
         cy="569.86218"
         cx="262.5"
         id="path3371"
         style="opacity:1;fill:#0000ff" />
      <path
         inkscape:connector-curvature="0"
         id="path3367-7"
         d="m 233.0784,542.73158 a 27.5,27.5 0 0 0 -7.94727,1.19726 25,25 0 0 0 24.94141,23.34961 25,25 0 0 0 10.01562,-2.12695 27.5,27.5 0 0 0 -27.00976,-22.41992 z"
         style="opacity:1;fill:#ffff00;fill-opacity:1" />
      <path
         inkscape:connector-curvature="0"
         id="path3367-4"
         d="m 262.46578,542.17752 a 27.5,27.5 0 0 0 -26.5957,20.64648 25,25 0 0 0 14.0957,4.35352 25,25 0 0 0 24.80664,-22.05664 27.5,27.5 0 0 0 -12.30664,-2.94336 z"
         style="opacity:1;fill:#ff00ff;fill-opacity:1" />
      <path
         inkscape:connector-curvature="0"
         id="path3369-4"
         d="m 247.35113,546.94885 a 27.5,27.5 0 0 0 -12.38086,22.95313 27.5,27.5 0 0 0 13.12891,23.40429 27.5,27.5 0 0 0 12.37695,-22.95312 27.5,27.5 0 0 0 -13.125,-23.4043 z"
         style="opacity:1;fill:#00ffff;fill-opacity:1" />
      <path
         inkscape:connector-curvature="0"
         id="path3367-2"
         d="m 247.33203,546.68498 a 27.5,27.5 0 0 0 -11.47656,16.09766 25,25 0 0 0 14.09765,4.35547 25,25 0 0 0 10.01563,-2.12695 27.5,27.5 0 0 0 -12.63672,-18.32618 z"
         style="opacity:1;fill:#ffffff;fill-opacity:1" />
    </g>
    <path
       sodipodi:type="star"
       style="opacity:1;fill:#000000;fill-opacity:1"
       id="path4253"
       sodipodi:sides="5"
       sodipodi:cx="110"
       sodipodi:cy="317.36221"
       sodipodi:r1="54.083267"
       sodipodi:r2="27.041636"
       sodipodi:arg1="0.98279372"
       sodipodi:arg2="1.6111123"
       inkscape:flatsided="false"
       inkscape:rounded="0"
       inkscape:randomized="0"
       d="m 140,362.36221 -31.08991,-17.98033 -32.437122,15.41779 7.493004,-35.12449 -24.686816,-26.08517 35.720845,-3.7278 17.179829,-31.53932 14.58369,32.82059 35.30453,6.5928 -26.70763,24.01204 z"
       inkscape:transform-center-x="-0.10760825"
       inkscape:transform-center-y="-0.69349635"
       transform="matrix(0.15975318,0,0,0.15344065,203.43832,434.39249)" />
    <path
       sodipodi:type="star"
       style="opacity:1;fill:#000000;fill-opacity:1"
       id="path4255"
       sodipodi:sides="5"
       sodipodi:cx="189.74745"
       sodipodi:cy="528.61227"
       sodipodi:r1="7.0710678"
       sodipodi:r2="3.5355339"
       sodipodi:arg1="-2.3561945"
       sodipodi:arg2="-1.727876"
       inkscape:flatsided="false"
       inkscape:rounded="0"
       inkscape:randomized="0"
       d="m 184.74745,523.61224 4.44692,1.508 3.76328,-2.80836 -0.06,4.69526 3.83382,2.71126 -4.48401,1.39384 -1.39384,4.48401 -2.71126,-3.83382 -4.69527,0.06 2.80837,-3.76328 z"
       inkscape:transform-center-x="-0.34182184"
       inkscape:transform-center-y="0.34182184" />
    <path
       sodipodi:type="star"
       style="opacity:1;fill:#000000;fill-opacity:1"
       id="path4257"
       sodipodi:sides="5"
       sodipodi:cx="209.59272"
       sodipodi:cy="504.34663"
       sodipodi:r1="10"
       sodipodi:r2="5"
       sodipodi:arg1="-1.5707963"
       sodipodi:arg2="-0.9424778"
       inkscape:flatsided="false"
       inkscape:rounded="0"
       inkscape:randomized="0"
       d="m 209.59271,494.34662 2.93893,5.95491 6.57164,0.95492 -4.75529,4.63525 1.12257,6.54509 -5.87785,-3.09017 -5.87785,3.09017 1.12257,-6.54509 -4.75528,-4.63525 6.57164,-0.95492 z"
       inkscape:transform-center-y="-0.95491503" />
    <path
       sodipodi:type="star"
       style="opacity:1;fill:#000000;fill-opacity:1"
       id="path4259"
       sodipodi:sides="5"
       sodipodi:cx="234.51963"
       sodipodi:cy="505.98194"
       sodipodi:r1="7.0710678"
       sodipodi:r2="3.5355339"
       sodipodi:arg1="-2.3561945"
       sodipodi:arg2="-1.727876"
       inkscape:flatsided="false"
       inkscape:rounded="0"
       inkscape:randomized="0"
       d="m 229.51962,500.98193 4.44692,1.508 3.76328,-2.80836 -0.06,4.69526 3.83382,2.71126 -4.48401,1.39384 -1.39384,4.48401 -2.71126,-3.83382 -4.69526,0.06 2.80836,-3.76328 z"
       inkscape:transform-center-x="-0.34182184"
       inkscape:transform-center-y="0.34182184" />
    <path
       sodipodi:type="star"
       style="opacity:1;fill:#000000;fill-opacity:1"
       id="path4261"
       sodipodi:sides="5"
       sodipodi:cx="206.91198"
       sodipodi:cy="526.79434"
       sodipodi:r1="7.0710678"
       sodipodi:r2="3.5355339"
       sodipodi:arg1="-2.3561945"
       sodipodi:arg2="-1.727876"
       inkscape:flatsided="false"
       inkscape:rounded="0"
       inkscape:randomized="0"
       d="m 201.91199,521.79431 4.44692,1.508 3.76327,-2.80837 -0.06,4.69527 3.83383,2.71126 -4.48401,1.39384 -1.39384,4.48401 -2.71126,-3.83382 -4.69527,0.06 2.80836,-3.76328 z"
       inkscape:transform-center-x="-0.34182184"
       inkscape:transform-center-y="0.34182184" />
  </g>
</svg>
