<?xml version="1.0" encoding="UTF-8" standalone="no"?>
<!-- Created with Inkscape (http://www.inkscape.org/) -->

<svg
   xmlns:dc="http://purl.org/dc/elements/1.1/"
   xmlns:cc="http://creativecommons.org/ns#"
   xmlns:rdf="http://www.w3.org/1999/02/22-rdf-syntax-ns#"
   xmlns:svg="http://www.w3.org/2000/svg"
   xmlns="http://www.w3.org/2000/svg"
   xmlns:sodipodi="http://sodipodi.sourceforge.net/DTD/sodipodi-0.dtd"
   xmlns:inkscape="http://www.inkscape.org/namespaces/inkscape"
   width="210mm"
   height="297mm"
   viewBox="0 0 210 297"
   version="1.1"
   id="svg8"
   inkscape:version="0.92.0 r15299"
   sodipodi:docname="droid.svg"
   inkscape:export-filename="/home/jflesch/git/paperwork/doc/img/droid.png"
   inkscape:export-xdpi="175"
   inkscape:export-ydpi="175">
  <defs
     id="defs2" />
  <sodipodi:namedview
     id="base"
     pagecolor="#ffffff"
     bordercolor="#666666"
     borderopacity="1.0"
     inkscape:pageopacity="0.0"
     inkscape:pageshadow="2"
     inkscape:zoom="0.7"
     inkscape:cx="195.39516"
     inkscape:cy="573.59009"
     inkscape:document-units="mm"
     inkscape:current-layer="layer2"
     showgrid="false"
     inkscape:window-width="1920"
     inkscape:window-height="1014"
     inkscape:window-x="0"
     inkscape:window-y="27"
     inkscape:window-maximized="1" />
  <metadata
     id="metadata5">
    <rdf:RDF>
      <cc:Work
         rdf:about="">
        <dc:format>image/svg+xml</dc:format>
        <dc:type
           rdf:resource="http://purl.org/dc/dcmitype/StillImage" />
        <dc:title />
      </cc:Work>
    </rdf:RDF>
  </metadata>
  <g
     inkscape:groupmode="layer"
     id="layer2"
     inkscape:label="Calque 2"
     style="display:inline">
    <g
       id="g4595"
       transform="translate(-102.05357,-108.47917)">
      <path
         sodipodi:nodetypes="ccssssccccccccccccccccccccccccccccccccccccccccccccccccccccccc"
         inkscape:connector-curvature="0"
         id="path4586"
         d="m 121.61384,142.02976 c 0.47008,-9.48915 9.01884,-30.08156 29.48214,-29.86012 4.0078,0.15416 7.39872,1.01696 10.25726,2.44774 0.27566,0.13797 1.11332,-1.13618 1.37915,-0.98777 0.84646,0.47257 2.44669,1.89511 3.19674,2.46816 0.30173,0.23053 -0.7743,0.98858 -0.48762,1.23444 7.17757,6.15559 9.68913,17.03473 10.03394,28.47731 l 6.2366,0.56697 c 3.4832,3.38262 2.84295,8.44515 3.11831,13.13467 l -0.18053,18.1864 -1.41029,0.0759 0.94257,18.63296 0.90204,0.20045 0.43431,2.83974 0.0334,6.28083 1.70384,0.66818 2.50565,5.27857 -2.07134,2.77292 6.18061,10.95805 -12.79553,14.39915 -18.8425,-4.00905 -0.13363,-2.77292 3.44109,-3.0736 -3.40768,-0.30067 c -0.24123,-0.45903 -0.72282,-0.81215 -0.13364,-1.63703 l 1.46998,-0.56795 -0.10022,-2.00452 0.36749,-0.80181 0.60136,-14.56619 -0.3675,-0.60135 0.20046,-1.20272 v -1.83747 l -1.93771,-0.735 -2.33861,1.80407 -1.1693,3.94223 -3.94223,-0.53454 -5.54584,0.50113 -0.0668,-1.03567 -3.14041,-0.10023 -0.16705,3.87541 -1.70384,6.61492 -1.1693,0.0334 8.05149,13.33007 0.0668,2.40543 -11.49259,6.5481 -19.5775,-2.03793 -0.0668,-1.9377 5.84652,-11.29214 -3.37428,2.17156 -16.10299,-2.77292 -1.33635,-3.17382 8.38559,-14.90028 2.37201,-0.96885 c 0,0 -1.06908,-10.99146 -1.00226,-10.79101 0.0668,0.20045 -1.60362,-0.80181 -1.60362,-0.80181 l 1.5368,-11.59281 -0.70158,-12.89576 -2.97337,-1.36975 -1.30294,-17.50616 c -0.12049,-4.22367 1.6659,-9.46537 5.52193,-10.88313 z"
         style="opacity:1;fill:none;fill-opacity:1;stroke:#000000;stroke-width:0.75;stroke-linecap:round;stroke-linejoin:round;stroke-miterlimit:4;stroke-dasharray:none;stroke-dashoffset:0;stroke-opacity:1;paint-order:normal" />
      <path
         sodipodi:nodetypes="ccc"
         inkscape:connector-curvature="0"
         id="path4588"
         d="m 121.80283,140.6596 c 18.14008,-4.46761 35.19664,-0.12538 51.16852,4.86644 l 2.5041,0.28348"
         style="opacity:1;fill:none;fill-opacity:1;stroke:#000000;stroke-width:0.75;stroke-linecap:round;stroke-linejoin:round;stroke-miterlimit:4;stroke-dasharray:none;stroke-dashoffset:0;stroke-opacity:1;paint-order:normal" />
      <path
         inkscape:connector-curvature="0"
         id="path4590"
         d="m 170.51796,176.86235 0.26727,2.13815 1.13589,0.13364 1.67044,22.11655 -1.20272,1.13589 -0.20045,0.73499 -5.12292,2.69167 -1.41741,-0.14174 -1.27567,-0.70871 1.84264,-0.28348 z"
         style="opacity:1;fill:none;fill-opacity:1;stroke:#000000;stroke-width:0.75;stroke-linecap:round;stroke-linejoin:round;stroke-miterlimit:4;stroke-dasharray:none;stroke-dashoffset:0;stroke-opacity:1;paint-order:normal" />
      <path
         inkscape:connector-curvature="0"
         id="path4592"
         d="m 164.1703,206.42903 0.0334,-0.73499 1.44435,-0.0225"
         style="opacity:1;fill:none;fill-opacity:1;stroke:#000000;stroke-width:0.75;stroke-linecap:round;stroke-linejoin:round;stroke-miterlimit:4;stroke-dasharray:none;stroke-dashoffset:0;stroke-opacity:1;paint-order:normal" />
      <path
         sodipodi:nodetypes="ccccc"
         inkscape:connector-curvature="0"
         id="path4594"
         d="m 172.97135,145.52604 c -4.22707,6.10284 -3.78274,5.65083 -5.19291,8.68521 -0.27491,2.16043 -0.49265,4.32086 -0.0668,6.48129 0.23758,1.14579 0.44636,2.30118 1.20271,3.27405 l 1.60362,12.89576"
         style="opacity:1;fill:none;fill-opacity:1;stroke:#000000;stroke-width:0.75;stroke-linecap:round;stroke-linejoin:round;stroke-miterlimit:4;stroke-dasharray:none;stroke-dashoffset:0;stroke-opacity:1;paint-order:normal" />
      <path
         inkscape:connector-curvature="0"
         id="path4596"
         d="m 121.61384,142.02976 -6.92181,42.95088"
         style="opacity:1;fill:none;fill-opacity:1;stroke:#000000;stroke-width:0.75;stroke-linecap:round;stroke-linejoin:round;stroke-miterlimit:4;stroke-dasharray:none;stroke-dashoffset:0;stroke-opacity:1;paint-order:normal" />
      <path
         inkscape:connector-curvature="0"
         id="path4598"
         d="m 114.65863,197.24165 4.81085,8.01808 10.15624,2.33861 -0.13364,8.61944 3.60814,5.21176 -4.00904,0.93544 -3.27405,5.4456"
         style="opacity:1;fill:none;fill-opacity:1;stroke:#000000;stroke-width:0.75;stroke-linecap:round;stroke-linejoin:round;stroke-miterlimit:4;stroke-dasharray:none;stroke-dashoffset:0;stroke-opacity:1;paint-order:normal" />
      <path
         sodipodi:nodetypes="cc"
         inkscape:connector-curvature="0"
         id="path4600"
         d="m 119.46948,205.25973 c 13.66082,0.10263 26.46534,3.11668 39.2552,6.1806"
         style="opacity:1;fill:none;fill-opacity:1;stroke:#000000;stroke-width:0.75;stroke-linecap:round;stroke-linejoin:round;stroke-miterlimit:4;stroke-dasharray:none;stroke-dashoffset:0;stroke-opacity:1;paint-order:normal" />
      <path
         sodipodi:nodetypes="cc"
         inkscape:connector-curvature="0"
         id="path4602"
         d="m 113.15523,196.57345 c 17.87797,0.2142 35.53777,3.26447 53.0598,8.10586"
         style="opacity:1;fill:none;fill-opacity:1;stroke:#000000;stroke-width:0.75;stroke-linecap:round;stroke-linejoin:round;stroke-miterlimit:4;stroke-dasharray:none;stroke-dashoffset:0;stroke-opacity:1;paint-order:normal" />
      <path
         sodipodi:nodetypes="cc"
         inkscape:connector-curvature="0"
         id="path4604"
         d="m 122.68767,136.93854 c 19.28562,-3.65313 36.24487,-0.50121 52.77156,6.37974"
         style="opacity:1;fill:none;fill-opacity:1;stroke:#000000;stroke-width:0.75;stroke-linecap:round;stroke-linejoin:round;stroke-miterlimit:4;stroke-dasharray:none;stroke-dashoffset:0;stroke-opacity:1;paint-order:normal" />
    </g>
  </g>
</svg>
